<svg xmlns="http://www.w3.org/2000/svg" width="200" height="200" viewBox="0 0 200 200">
  <circle cx="100" cy="100" r="80" fill="#6b7280"/>

  <path d="M 100 100 L 180 100 A 80 80 0 0 1 156.56 156.56 Z" fill="#4b5563" stroke="#1f2937" stroke-width="1"/>
  <path d="M 100 100 L 156.56 156.56 A 80 80 0 0 1 100 180 Z" fill="#374151" stroke="#1f2937" stroke-width="1"/>
  <path d="M 100 100 L 100 180 A 80 80 0 0 1 43.44 156.56 Z" fill="#4b5563" stroke="#1f2937" stroke-width="1"/>
  <path d="M 100 100 L 43.44 156.56 A 80 80 0 0 1 20 100 Z" fill="#374151" stroke="#1f2937" stroke-width="1"/>
  <path d="M 100 100 L 20 100 A 80 80 0 0 1 43.44 43.44 Z" fill="#4b5563" stroke="#1f2937" stroke-width="1"/>
  <path d="M 100 100 L 43.44 43.44 A 80 80 0 0 1 100 20 Z" fill="#374151" stroke="#1f2937" stroke-width="1"/>
  <path d="M 100 100 L 100 20 A 80 80 0 0 1 156.56 43.44 Z" fill="#4b5563" stroke="#1f2937" stroke-width="1"/>
  <path d="M 100 100 L 156.56 43.44 A 80 80 0 0 1 180 100 Z" fill="#374151" stroke="#1f2937" stroke-width="1"/>

</svg>
